<svg xmlns="http://www.w3.org/2000/svg" width="400" height="400"><path d="M34.294 199.816a164.952 164.952 0 100-.047v.047" fill="#3bb6f4" style="isolation:isolate"/><path d="M1 200c0 109.9 89.1 199 199 199s199-89.1 199-199S309.905 1 200 1 1 90.095 1 200h0" fill="none" stroke="#bfdeee" stroke-linecap="round" stroke-linejoin="round" stroke-width="2" stroke-dasharray="5 11"/><path d="M208.542 205.834h-3.343v-18.385a1.671 1.671 0 00-1.671-1.671h-2.837a5.007 5.007 0 00-2.781.842l-3.2 2.135a1.67 1.67 0 00-.464 2.317l1.855 2.781a1.67 1.67 0 002.317.464l.1-.065v11.582h-3.347a1.671 1.671 0 00-1.671 1.671v3.343a1.671 1.671 0 001.671 1.671h13.371a1.671 1.671 0 001.671-1.671v-3.343a1.671 1.671 0 00-1.671-1.671zm61.832-46.706H129.167a6.686 6.686 0 00-6.685 6.685v66.853a6.686 6.686 0 006.685 6.685h141.207a6.686 6.686 0 006.685-6.685v-66.853a6.686 6.686 0 00-6.685-6.685zm-137.864 70.2v-13.375a13.37 13.37 0 0113.372 13.375zm0-46.8v-13.372h13.372a13.37 13.37 0 01-13.372 13.372zm69.346 40.019c-11.077 0-20.056-10.477-20.056-23.4s8.979-23.4 20.056-23.4 20.056 10.481 20.056 23.402-8.983 23.398-20.056 23.398zm65.175 6.781h-13.37a13.37 13.37 0 0113.371-13.371zm0-46.8a13.37 13.37 0 01-13.371-13.371h13.371zm-108.12-53.289v-3.685a5.529 5.529 0 015.529-5.529h82.929v-11.057a5.533 5.533 0 019.438-3.909l18.428 18.428a5.529 5.529 0 010 7.819l-18.428 18.428a5.532 5.532 0 01-9.438-3.909v-11.057H164.44a5.529 5.529 0 01-5.529-5.529zm78.027 134.138h-82.929v-11.056a5.533 5.533 0 00-9.438-3.909l-18.429 18.428a5.529 5.529 0 000 7.819l18.429 18.429a5.532 5.532 0 009.438-3.909v-11.058h82.929a5.529 5.529 0 005.529-5.529v-3.686a5.529 5.529 0 00-5.529-5.528z" fill="#fff"/></svg>